<?xml version="1.0" ?><!DOCTYPE svg  PUBLIC '-//W3C//DTD SVG 1.1//EN'  'http://www.w3.org/Graphics/SVG/1.1/DTD/svg11.dtd'><svg enable-background="new 0 0 128 128" height="128px" version="1.1" viewBox="0 0 128 128" width="128px" xml:space="preserve" xmlns="http://www.w3.org/2000/svg" xmlns:xlink="http://www.w3.org/1999/xlink"><g id="Layer_2"/><g id="Layer_1"><g><path d="    M63.837,91.484c0,0-17.983,0-23.336,0s-5.228-5.281-4.255-8.036c3.349-9.482,9.122-7.779,9.122-15.44c0-5.255,0-10.404,0-17.577    c0-14.825,14.864-16.749,18.521-16.749s18.521,1.924,18.521,16.749c0,7.173,0,12.322,0,17.577c0,7.661,5.773,5.958,9.122,15.44    c0.973,2.755,1.098,8.036-4.255,8.036s-23.336,0-23.336,0H63.837z" fill="none" stroke="#231F20" stroke-linecap="round" stroke-linejoin="round" stroke-miterlimit="10" stroke-width="5"/></g><path d="   M63.942,91.484" fill="none" stroke="#231F20" stroke-linecap="round" stroke-linejoin="round" stroke-miterlimit="10" stroke-width="5"/><path d="   M72.378,93.314c0,4.658-3.777,8.436-8.436,8.436s-8.436-3.777-8.436-8.436" fill="none" stroke="#231F20" stroke-linecap="round" stroke-linejoin="round" stroke-miterlimit="10" stroke-width="5"/><path d="   M58.91,34.027c0,0,1.419-3.59,5.104-3.59c3.686,0,4.752,3.447,4.752,3.447" fill="none" stroke="#231F20" stroke-linecap="round" stroke-linejoin="round" stroke-miterlimit="10" stroke-width="5"/></g></svg>